<mxfile host="Electron" agent="Mozilla/5.0 (X11; Linux x86_64) AppleWebKit/537.36 (KHTML, like Gecko) draw.io/24.7.17 Chrome/128.0.6613.36 Electron/32.0.1 Safari/537.36" version="24.7.17">
  <diagram name="Page-1" id="WhB4v98FCIUBiP3EwE1m">
    <mxGraphModel dx="2074" dy="1230" grid="1" gridSize="10" guides="1" tooltips="1" connect="1" arrows="1" fold="1" page="1" pageScale="1" pageWidth="1100" pageHeight="850" math="0" shadow="0">
      <root>
        <mxCell id="0" />
        <mxCell id="1" parent="0" />
        <mxCell id="NjQIXoLuCuox8VsJS8E3-104" value="" style="rounded=0;whiteSpace=wrap;html=1;fillColor=none;dashed=1;dashPattern=8 8;" parent="1" vertex="1">
          <mxGeometry x="80" y="70" width="840" height="690" as="geometry" />
        </mxCell>
        <mxCell id="IZAZrPXhsD7FJTsowvt--112" value="" style="group" parent="1" vertex="1" connectable="0">
          <mxGeometry x="650" y="560" width="60" height="80" as="geometry" />
        </mxCell>
        <mxCell id="IZAZrPXhsD7FJTsowvt--91" value="" style="rounded=0;whiteSpace=wrap;html=1;fillColor=#dae8fc;strokeColor=#6c8ebf;container=0;rotation=-180;" parent="IZAZrPXhsD7FJTsowvt--112" vertex="1">
          <mxGeometry width="60" height="80" as="geometry" />
        </mxCell>
        <mxCell id="IZAZrPXhsD7FJTsowvt--94" value="1" style="text;html=1;align=center;verticalAlign=middle;whiteSpace=wrap;rounded=0;container=0;" parent="IZAZrPXhsD7FJTsowvt--112" vertex="1">
          <mxGeometry x="40" y="50" width="20" height="20" as="geometry" />
        </mxCell>
        <mxCell id="IZAZrPXhsD7FJTsowvt--95" value="0" style="text;html=1;align=center;verticalAlign=middle;whiteSpace=wrap;rounded=0;container=0;" parent="IZAZrPXhsD7FJTsowvt--112" vertex="1">
          <mxGeometry x="40" y="10" width="20" height="20" as="geometry" />
        </mxCell>
        <mxCell id="IZAZrPXhsD7FJTsowvt--103" value="" style="shape=flexArrow;endArrow=classic;html=1;rounded=0;entryX=0;entryY=0.5;entryDx=0;entryDy=0;" parent="1" target="IZAZrPXhsD7FJTsowvt--102" edge="1">
          <mxGeometry width="50" height="50" relative="1" as="geometry">
            <mxPoint x="530" y="180" as="sourcePoint" />
            <mxPoint x="570" y="460" as="targetPoint" />
            <Array as="points">
              <mxPoint x="590" y="180" />
              <mxPoint x="590" y="470" />
            </Array>
          </mxGeometry>
        </mxCell>
        <mxCell id="NjQIXoLuCuox8VsJS8E3-93" value="carry_in" style="text;html=1;align=center;verticalAlign=middle;whiteSpace=wrap;rounded=0;fontStyle=1" parent="1" vertex="1">
          <mxGeometry x="20" y="700" width="55" height="20" as="geometry" />
        </mxCell>
        <mxCell id="NjQIXoLuCuox8VsJS8E3-94" value="carry_out" style="text;html=1;align=center;verticalAlign=middle;whiteSpace=wrap;rounded=0;fontStyle=1" parent="1" vertex="1">
          <mxGeometry x="930" y="510" width="60" height="20" as="geometry" />
        </mxCell>
        <mxCell id="NjQIXoLuCuox8VsJS8E3-95" value="BCD digit" style="text;html=1;align=center;verticalAlign=middle;whiteSpace=wrap;rounded=0;fontSize=12;fontStyle=1" parent="1" vertex="1">
          <mxGeometry x="930" y="140" width="50" height="30" as="geometry" />
        </mxCell>
        <mxCell id="IZAZrPXhsD7FJTsowvt--1" value="rst" style="text;html=1;align=center;verticalAlign=middle;whiteSpace=wrap;rounded=0;fontStyle=1" parent="1" vertex="1">
          <mxGeometry x="20" y="80" width="35" height="20" as="geometry" />
        </mxCell>
        <mxCell id="IZAZrPXhsD7FJTsowvt--2" value="en" style="text;html=1;align=center;verticalAlign=middle;whiteSpace=wrap;rounded=0;fontStyle=1" parent="1" vertex="1">
          <mxGeometry x="20" y="650" width="35" height="20" as="geometry" />
        </mxCell>
        <mxCell id="IZAZrPXhsD7FJTsowvt--3" value="clk" style="text;html=1;align=center;verticalAlign=middle;whiteSpace=wrap;rounded=0;fontStyle=1" parent="1" vertex="1">
          <mxGeometry x="20" y="480" width="35" height="20" as="geometry" />
        </mxCell>
        <mxCell id="IZAZrPXhsD7FJTsowvt--38" value="" style="group" parent="1" vertex="1" connectable="0">
          <mxGeometry x="440" y="140" width="60" height="80" as="geometry" />
        </mxCell>
        <mxCell id="IZAZrPXhsD7FJTsowvt--33" value="" style="rounded=1;whiteSpace=wrap;html=1;fillColor=#fff2cc;strokeColor=#d6b656;container=0;" parent="IZAZrPXhsD7FJTsowvt--38" vertex="1">
          <mxGeometry width="60" height="80" as="geometry" />
        </mxCell>
        <mxCell id="IZAZrPXhsD7FJTsowvt--34" value="" style="triangle;whiteSpace=wrap;html=1;rotation=0;container=0;" parent="IZAZrPXhsD7FJTsowvt--38" vertex="1">
          <mxGeometry y="50" width="7.03" height="20" as="geometry" />
        </mxCell>
        <mxCell id="IZAZrPXhsD7FJTsowvt--35" value="D" style="text;html=1;align=center;verticalAlign=middle;whiteSpace=wrap;rounded=0;container=0;" parent="IZAZrPXhsD7FJTsowvt--38" vertex="1">
          <mxGeometry y="10" width="20" height="20" as="geometry" />
        </mxCell>
        <mxCell id="IZAZrPXhsD7FJTsowvt--37" value="Q" style="text;html=1;align=center;verticalAlign=middle;whiteSpace=wrap;rounded=0;container=0;" parent="IZAZrPXhsD7FJTsowvt--38" vertex="1">
          <mxGeometry x="40" y="10" width="20" height="20" as="geometry" />
        </mxCell>
        <mxCell id="IZAZrPXhsD7FJTsowvt--39" value="" style="group" parent="1" vertex="1" connectable="0">
          <mxGeometry x="440" y="240" width="60" height="80" as="geometry" />
        </mxCell>
        <mxCell id="IZAZrPXhsD7FJTsowvt--12" value="" style="rounded=1;whiteSpace=wrap;html=1;fillColor=#fff2cc;strokeColor=#d6b656;container=0;" parent="IZAZrPXhsD7FJTsowvt--39" vertex="1">
          <mxGeometry width="60" height="80" as="geometry" />
        </mxCell>
        <mxCell id="IZAZrPXhsD7FJTsowvt--13" value="" style="triangle;whiteSpace=wrap;html=1;rotation=0;container=0;" parent="IZAZrPXhsD7FJTsowvt--39" vertex="1">
          <mxGeometry y="50" width="7.03" height="20" as="geometry" />
        </mxCell>
        <mxCell id="IZAZrPXhsD7FJTsowvt--15" value="D" style="text;html=1;align=center;verticalAlign=middle;whiteSpace=wrap;rounded=0;container=0;" parent="IZAZrPXhsD7FJTsowvt--39" vertex="1">
          <mxGeometry y="10" width="20" height="20" as="geometry" />
        </mxCell>
        <mxCell id="IZAZrPXhsD7FJTsowvt--17" value="Q" style="text;html=1;align=center;verticalAlign=middle;whiteSpace=wrap;rounded=0;container=0;" parent="IZAZrPXhsD7FJTsowvt--39" vertex="1">
          <mxGeometry x="40" y="10" width="20" height="20" as="geometry" />
        </mxCell>
        <mxCell id="IZAZrPXhsD7FJTsowvt--40" value="" style="group" parent="1" vertex="1" connectable="0">
          <mxGeometry x="440" y="340" width="60" height="80" as="geometry" />
        </mxCell>
        <mxCell id="IZAZrPXhsD7FJTsowvt--21" value="" style="rounded=1;whiteSpace=wrap;html=1;fillColor=#fff2cc;strokeColor=#d6b656;container=0;" parent="IZAZrPXhsD7FJTsowvt--40" vertex="1">
          <mxGeometry width="60" height="80" as="geometry" />
        </mxCell>
        <mxCell id="IZAZrPXhsD7FJTsowvt--22" value="" style="triangle;whiteSpace=wrap;html=1;rotation=0;container=0;" parent="IZAZrPXhsD7FJTsowvt--40" vertex="1">
          <mxGeometry y="50" width="7.03" height="20" as="geometry" />
        </mxCell>
        <mxCell id="IZAZrPXhsD7FJTsowvt--23" value="D" style="text;html=1;align=center;verticalAlign=middle;whiteSpace=wrap;rounded=0;container=0;" parent="IZAZrPXhsD7FJTsowvt--40" vertex="1">
          <mxGeometry y="10" width="20" height="20" as="geometry" />
        </mxCell>
        <mxCell id="IZAZrPXhsD7FJTsowvt--25" value="Q" style="text;html=1;align=center;verticalAlign=middle;whiteSpace=wrap;rounded=0;container=0;" parent="IZAZrPXhsD7FJTsowvt--40" vertex="1">
          <mxGeometry x="40" y="10" width="20" height="20" as="geometry" />
        </mxCell>
        <mxCell id="IZAZrPXhsD7FJTsowvt--41" value="" style="group" parent="1" vertex="1" connectable="0">
          <mxGeometry x="440" y="440" width="60" height="80" as="geometry" />
        </mxCell>
        <mxCell id="IZAZrPXhsD7FJTsowvt--27" value="" style="rounded=1;whiteSpace=wrap;html=1;fillColor=#fff2cc;strokeColor=#d6b656;container=0;" parent="IZAZrPXhsD7FJTsowvt--41" vertex="1">
          <mxGeometry width="60" height="80" as="geometry" />
        </mxCell>
        <mxCell id="IZAZrPXhsD7FJTsowvt--28" value="" style="triangle;whiteSpace=wrap;html=1;rotation=0;container=0;" parent="IZAZrPXhsD7FJTsowvt--41" vertex="1">
          <mxGeometry y="50" width="7.03" height="20" as="geometry" />
        </mxCell>
        <mxCell id="IZAZrPXhsD7FJTsowvt--29" value="D" style="text;html=1;align=center;verticalAlign=middle;whiteSpace=wrap;rounded=0;container=0;" parent="IZAZrPXhsD7FJTsowvt--41" vertex="1">
          <mxGeometry y="10" width="20" height="20" as="geometry" />
        </mxCell>
        <mxCell id="IZAZrPXhsD7FJTsowvt--31" value="Q" style="text;html=1;align=center;verticalAlign=middle;whiteSpace=wrap;rounded=0;container=0;" parent="IZAZrPXhsD7FJTsowvt--41" vertex="1">
          <mxGeometry x="40" y="10" width="20" height="20" as="geometry" />
        </mxCell>
        <mxCell id="IZAZrPXhsD7FJTsowvt--42" value="" style="endArrow=classic;html=1;rounded=0;entryX=0;entryY=0.5;entryDx=0;entryDy=0;" parent="1" target="IZAZrPXhsD7FJTsowvt--28" edge="1">
          <mxGeometry width="50" height="50" relative="1" as="geometry">
            <mxPoint x="400" y="500" as="sourcePoint" />
            <mxPoint x="570" y="470" as="targetPoint" />
          </mxGeometry>
        </mxCell>
        <mxCell id="IZAZrPXhsD7FJTsowvt--43" value="" style="endArrow=classic;html=1;rounded=0;entryX=0;entryY=0.5;entryDx=0;entryDy=0;" parent="1" edge="1">
          <mxGeometry width="50" height="50" relative="1" as="geometry">
            <mxPoint x="400" y="400" as="sourcePoint" />
            <mxPoint x="440" y="400" as="targetPoint" />
          </mxGeometry>
        </mxCell>
        <mxCell id="IZAZrPXhsD7FJTsowvt--44" value="" style="endArrow=classic;html=1;rounded=0;entryX=0;entryY=0.5;entryDx=0;entryDy=0;" parent="1" edge="1">
          <mxGeometry width="50" height="50" relative="1" as="geometry">
            <mxPoint x="400" y="300" as="sourcePoint" />
            <mxPoint x="440" y="300" as="targetPoint" />
          </mxGeometry>
        </mxCell>
        <mxCell id="IZAZrPXhsD7FJTsowvt--45" value="" style="endArrow=classic;html=1;rounded=0;entryX=0;entryY=0.5;entryDx=0;entryDy=0;" parent="1" edge="1">
          <mxGeometry width="50" height="50" relative="1" as="geometry">
            <mxPoint x="400" y="200" as="sourcePoint" />
            <mxPoint x="440" y="200" as="targetPoint" />
          </mxGeometry>
        </mxCell>
        <mxCell id="IZAZrPXhsD7FJTsowvt--46" value="" style="endArrow=classic;html=1;rounded=0;" parent="1" edge="1">
          <mxGeometry width="50" height="50" relative="1" as="geometry">
            <mxPoint x="500" y="460" as="sourcePoint" />
            <mxPoint x="530" y="460" as="targetPoint" />
          </mxGeometry>
        </mxCell>
        <mxCell id="IZAZrPXhsD7FJTsowvt--47" value="" style="endArrow=classic;html=1;rounded=0;" parent="1" edge="1">
          <mxGeometry width="50" height="50" relative="1" as="geometry">
            <mxPoint x="500" y="360" as="sourcePoint" />
            <mxPoint x="530" y="360" as="targetPoint" />
          </mxGeometry>
        </mxCell>
        <mxCell id="IZAZrPXhsD7FJTsowvt--48" value="" style="endArrow=classic;html=1;rounded=0;" parent="1" edge="1">
          <mxGeometry width="50" height="50" relative="1" as="geometry">
            <mxPoint x="500" y="260" as="sourcePoint" />
            <mxPoint x="530" y="260" as="targetPoint" />
          </mxGeometry>
        </mxCell>
        <mxCell id="IZAZrPXhsD7FJTsowvt--49" value="" style="endArrow=classic;html=1;rounded=0;" parent="1" edge="1">
          <mxGeometry width="50" height="50" relative="1" as="geometry">
            <mxPoint x="500" y="160" as="sourcePoint" />
            <mxPoint x="530" y="160" as="targetPoint" />
          </mxGeometry>
        </mxCell>
        <mxCell id="IZAZrPXhsD7FJTsowvt--50" value="" style="endArrow=none;html=1;rounded=0;strokeWidth=3;" parent="1" edge="1">
          <mxGeometry width="50" height="50" relative="1" as="geometry">
            <mxPoint x="530" y="470" as="sourcePoint" />
            <mxPoint x="530" y="150" as="targetPoint" />
          </mxGeometry>
        </mxCell>
        <mxCell id="IZAZrPXhsD7FJTsowvt--51" value="" style="endArrow=none;html=1;rounded=0;" parent="1" edge="1">
          <mxGeometry width="50" height="50" relative="1" as="geometry">
            <mxPoint x="400" y="500" as="sourcePoint" />
            <mxPoint x="400" y="200" as="targetPoint" />
          </mxGeometry>
        </mxCell>
        <mxCell id="IZAZrPXhsD7FJTsowvt--52" value="" style="endArrow=none;html=1;rounded=0;strokeWidth=3;" parent="1" edge="1">
          <mxGeometry width="50" height="50" relative="1" as="geometry">
            <mxPoint x="360" y="470" as="sourcePoint" />
            <mxPoint x="360" y="150" as="targetPoint" />
          </mxGeometry>
        </mxCell>
        <mxCell id="IZAZrPXhsD7FJTsowvt--53" value="" style="endArrow=classic;html=1;rounded=0;entryX=0;entryY=0.5;entryDx=0;entryDy=0;" parent="1" target="IZAZrPXhsD7FJTsowvt--29" edge="1">
          <mxGeometry width="50" height="50" relative="1" as="geometry">
            <mxPoint x="360" y="460" as="sourcePoint" />
            <mxPoint x="540" y="470" as="targetPoint" />
          </mxGeometry>
        </mxCell>
        <mxCell id="IZAZrPXhsD7FJTsowvt--54" value="" style="endArrow=classic;html=1;rounded=0;entryX=0;entryY=0.5;entryDx=0;entryDy=0;" parent="1" edge="1">
          <mxGeometry width="50" height="50" relative="1" as="geometry">
            <mxPoint x="360" y="360" as="sourcePoint" />
            <mxPoint x="440" y="360" as="targetPoint" />
          </mxGeometry>
        </mxCell>
        <mxCell id="IZAZrPXhsD7FJTsowvt--55" value="" style="endArrow=classic;html=1;rounded=0;entryX=0;entryY=0.5;entryDx=0;entryDy=0;" parent="1" edge="1">
          <mxGeometry width="50" height="50" relative="1" as="geometry">
            <mxPoint x="360" y="260" as="sourcePoint" />
            <mxPoint x="440" y="260" as="targetPoint" />
          </mxGeometry>
        </mxCell>
        <mxCell id="IZAZrPXhsD7FJTsowvt--56" value="" style="endArrow=classic;html=1;rounded=0;entryX=0;entryY=0.5;entryDx=0;entryDy=0;" parent="1" edge="1">
          <mxGeometry width="50" height="50" relative="1" as="geometry">
            <mxPoint x="360" y="160" as="sourcePoint" />
            <mxPoint x="440" y="160" as="targetPoint" />
          </mxGeometry>
        </mxCell>
        <mxCell id="IZAZrPXhsD7FJTsowvt--57" value="" style="endArrow=none;html=1;rounded=0;" parent="1" edge="1">
          <mxGeometry width="50" height="50" relative="1" as="geometry">
            <mxPoint x="400" y="500" as="sourcePoint" />
            <mxPoint x="20" y="500" as="targetPoint" />
          </mxGeometry>
        </mxCell>
        <mxCell id="IZAZrPXhsD7FJTsowvt--67" value="" style="shape=flexArrow;endArrow=classic;html=1;rounded=0;exitX=1;exitY=0.5;exitDx=0;exitDy=0;" parent="1" source="IZAZrPXhsD7FJTsowvt--60" edge="1">
          <mxGeometry width="50" height="50" relative="1" as="geometry">
            <mxPoint x="520" y="520" as="sourcePoint" />
            <mxPoint x="360" y="300" as="targetPoint" />
          </mxGeometry>
        </mxCell>
        <mxCell id="IZAZrPXhsD7FJTsowvt--60" value="" style="rounded=0;whiteSpace=wrap;html=1;fillColor=#dae8fc;strokeColor=#6c8ebf;container=0;" parent="1" vertex="1">
          <mxGeometry x="220" y="260" width="60" height="80" as="geometry" />
        </mxCell>
        <mxCell id="IZAZrPXhsD7FJTsowvt--59" value="" style="endArrow=none;html=1;rounded=0;exitX=0;exitY=0;exitDx=0;exitDy=0;entryX=1;entryY=0.5;entryDx=0;entryDy=0;" parent="1" edge="1">
          <mxGeometry width="50" height="50" relative="1" as="geometry">
            <mxPoint x="220" y="260" as="sourcePoint" />
            <mxPoint x="280" y="300" as="targetPoint" />
          </mxGeometry>
        </mxCell>
        <mxCell id="IZAZrPXhsD7FJTsowvt--61" value="" style="endArrow=none;html=1;rounded=0;exitX=0;exitY=1;exitDx=0;exitDy=0;entryX=1;entryY=0.5;entryDx=0;entryDy=0;" parent="1" source="IZAZrPXhsD7FJTsowvt--60" target="IZAZrPXhsD7FJTsowvt--60" edge="1">
          <mxGeometry width="50" height="50" relative="1" as="geometry">
            <mxPoint x="300" y="200" as="sourcePoint" />
            <mxPoint x="350" y="150" as="targetPoint" />
          </mxGeometry>
        </mxCell>
        <mxCell id="IZAZrPXhsD7FJTsowvt--74" value="1" style="text;html=1;align=center;verticalAlign=middle;whiteSpace=wrap;rounded=0;container=0;" parent="1" vertex="1">
          <mxGeometry x="220" y="270" width="20" height="20" as="geometry" />
        </mxCell>
        <mxCell id="IZAZrPXhsD7FJTsowvt--75" value="0" style="text;html=1;align=center;verticalAlign=middle;whiteSpace=wrap;rounded=0;container=0;" parent="1" vertex="1">
          <mxGeometry x="220" y="310" width="20" height="20" as="geometry" />
        </mxCell>
        <mxCell id="IZAZrPXhsD7FJTsowvt--76" value="" style="endArrow=classic;html=1;rounded=0;entryX=0.5;entryY=0;entryDx=0;entryDy=0;" parent="1" target="IZAZrPXhsD7FJTsowvt--60" edge="1">
          <mxGeometry width="50" height="50" relative="1" as="geometry">
            <mxPoint x="20" y="100" as="sourcePoint" />
            <mxPoint x="570" y="470" as="targetPoint" />
            <Array as="points">
              <mxPoint x="250" y="100" />
            </Array>
          </mxGeometry>
        </mxCell>
        <mxCell id="IZAZrPXhsD7FJTsowvt--77" value="" style="shape=flexArrow;endArrow=classic;html=1;rounded=0;entryX=0;entryY=0.5;entryDx=0;entryDy=0;" parent="1" target="IZAZrPXhsD7FJTsowvt--74" edge="1">
          <mxGeometry width="50" height="50" relative="1" as="geometry">
            <mxPoint x="180" y="280" as="sourcePoint" />
            <mxPoint x="570" y="470" as="targetPoint" />
          </mxGeometry>
        </mxCell>
        <mxCell id="IZAZrPXhsD7FJTsowvt--78" value="4b0000" style="text;html=1;align=center;verticalAlign=middle;whiteSpace=wrap;rounded=0;fontStyle=1;fontSize=14;" parent="1" vertex="1">
          <mxGeometry x="120" y="265" width="60" height="30" as="geometry" />
        </mxCell>
        <mxCell id="IZAZrPXhsD7FJTsowvt--87" value="" style="shape=flexArrow;endArrow=classic;html=1;rounded=0;entryX=0;entryY=0.5;entryDx=0;entryDy=0;" parent="1" target="IZAZrPXhsD7FJTsowvt--75" edge="1">
          <mxGeometry width="50" height="50" relative="1" as="geometry">
            <mxPoint x="220" y="580" as="sourcePoint" />
            <mxPoint x="570" y="470" as="targetPoint" />
            <Array as="points">
              <mxPoint x="180" y="580" />
              <mxPoint x="180" y="320" />
            </Array>
          </mxGeometry>
        </mxCell>
        <mxCell id="IZAZrPXhsD7FJTsowvt--89" value="" style="group" parent="1" vertex="1" connectable="0">
          <mxGeometry x="220" y="540" width="60" height="80" as="geometry" />
        </mxCell>
        <mxCell id="IZAZrPXhsD7FJTsowvt--79" value="" style="rounded=0;whiteSpace=wrap;html=1;fillColor=#dae8fc;strokeColor=#6c8ebf;container=0;rotation=-180;" parent="IZAZrPXhsD7FJTsowvt--89" vertex="1">
          <mxGeometry width="60" height="80" as="geometry" />
        </mxCell>
        <mxCell id="IZAZrPXhsD7FJTsowvt--80" value="" style="endArrow=none;html=1;rounded=0;exitX=1;exitY=0.5;exitDx=0;exitDy=0;" parent="IZAZrPXhsD7FJTsowvt--89" source="IZAZrPXhsD7FJTsowvt--79" edge="1">
          <mxGeometry width="50" height="50" relative="1" as="geometry">
            <mxPoint x="10" y="50" as="sourcePoint" />
            <mxPoint x="60" as="targetPoint" />
          </mxGeometry>
        </mxCell>
        <mxCell id="IZAZrPXhsD7FJTsowvt--84" value="" style="endArrow=none;html=1;rounded=0;exitX=1;exitY=0.5;exitDx=0;exitDy=0;" parent="IZAZrPXhsD7FJTsowvt--89" source="IZAZrPXhsD7FJTsowvt--79" edge="1">
          <mxGeometry width="50" height="50" relative="1" as="geometry">
            <mxPoint y="40" as="sourcePoint" />
            <mxPoint x="60" y="80" as="targetPoint" />
          </mxGeometry>
        </mxCell>
        <mxCell id="IZAZrPXhsD7FJTsowvt--83" value="1" style="text;html=1;align=center;verticalAlign=middle;whiteSpace=wrap;rounded=0;container=0;" parent="IZAZrPXhsD7FJTsowvt--89" vertex="1">
          <mxGeometry x="40" y="50" width="20" height="20" as="geometry" />
        </mxCell>
        <mxCell id="IZAZrPXhsD7FJTsowvt--85" value="0" style="text;html=1;align=center;verticalAlign=middle;whiteSpace=wrap;rounded=0;container=0;" parent="IZAZrPXhsD7FJTsowvt--89" vertex="1">
          <mxGeometry x="40" y="10" width="20" height="20" as="geometry" />
        </mxCell>
        <mxCell id="IZAZrPXhsD7FJTsowvt--96" value="" style="shape=flexArrow;endArrow=classic;html=1;rounded=0;entryX=1;entryY=0.5;entryDx=0;entryDy=0;" parent="1" target="IZAZrPXhsD7FJTsowvt--83" edge="1">
          <mxGeometry width="50" height="50" relative="1" as="geometry">
            <mxPoint x="650" y="600" as="sourcePoint" />
            <mxPoint x="570" y="470" as="targetPoint" />
          </mxGeometry>
        </mxCell>
        <mxCell id="IZAZrPXhsD7FJTsowvt--97" value="" style="shape=flexArrow;endArrow=classic;html=1;rounded=0;" parent="1" edge="1">
          <mxGeometry width="50" height="50" relative="1" as="geometry">
            <mxPoint x="750" y="620" as="sourcePoint" />
            <mxPoint x="710" y="620" as="targetPoint" />
          </mxGeometry>
        </mxCell>
        <mxCell id="IZAZrPXhsD7FJTsowvt--92" value="" style="endArrow=none;html=1;rounded=0;exitX=1;exitY=0.5;exitDx=0;exitDy=0;" parent="1" source="IZAZrPXhsD7FJTsowvt--91" edge="1">
          <mxGeometry width="50" height="50" relative="1" as="geometry">
            <mxPoint x="660" y="610" as="sourcePoint" />
            <mxPoint x="710" y="560" as="targetPoint" />
          </mxGeometry>
        </mxCell>
        <mxCell id="IZAZrPXhsD7FJTsowvt--93" value="" style="endArrow=none;html=1;rounded=0;exitX=1;exitY=0.5;exitDx=0;exitDy=0;" parent="1" source="IZAZrPXhsD7FJTsowvt--91" edge="1">
          <mxGeometry width="50" height="50" relative="1" as="geometry">
            <mxPoint x="650" y="600" as="sourcePoint" />
            <mxPoint x="710" y="640" as="targetPoint" />
          </mxGeometry>
        </mxCell>
        <mxCell id="IZAZrPXhsD7FJTsowvt--98" value="&lt;font size=&quot;1&quot; style=&quot;&quot;&gt;&lt;b style=&quot;font-size: 20px;&quot;&gt;+&lt;/b&gt;&lt;/font&gt;" style="ellipse;whiteSpace=wrap;html=1;aspect=fixed;fillColor=#d5e8d4;strokeColor=#82b366;" parent="1" vertex="1">
          <mxGeometry x="650" y="290" width="60" height="60" as="geometry" />
        </mxCell>
        <mxCell id="IZAZrPXhsD7FJTsowvt--99" value="" style="shape=flexArrow;endArrow=classic;html=1;rounded=0;entryX=0;entryY=0.5;entryDx=0;entryDy=0;" parent="1" target="IZAZrPXhsD7FJTsowvt--98" edge="1">
          <mxGeometry width="50" height="50" relative="1" as="geometry">
            <mxPoint x="530" y="180" as="sourcePoint" />
            <mxPoint x="570" y="470" as="targetPoint" />
            <Array as="points">
              <mxPoint x="590" y="180" />
              <mxPoint x="590" y="320" />
            </Array>
          </mxGeometry>
        </mxCell>
        <mxCell id="IZAZrPXhsD7FJTsowvt--100" value="" style="shape=flexArrow;endArrow=classic;html=1;rounded=0;exitX=1;exitY=0.5;exitDx=0;exitDy=0;" parent="1" source="IZAZrPXhsD7FJTsowvt--98" edge="1">
          <mxGeometry width="50" height="50" relative="1" as="geometry">
            <mxPoint x="520" y="510" as="sourcePoint" />
            <mxPoint x="710" y="580" as="targetPoint" />
            <Array as="points">
              <mxPoint x="770" y="320" />
              <mxPoint x="770" y="580" />
            </Array>
          </mxGeometry>
        </mxCell>
        <mxCell id="IZAZrPXhsD7FJTsowvt--101" value="4b0000" style="text;html=1;align=center;verticalAlign=middle;whiteSpace=wrap;rounded=0;fontStyle=1;fontSize=14;" parent="1" vertex="1">
          <mxGeometry x="750" y="605" width="60" height="30" as="geometry" />
        </mxCell>
        <mxCell id="IZAZrPXhsD7FJTsowvt--102" value="&lt;font size=&quot;1&quot; style=&quot;&quot;&gt;&lt;b style=&quot;font-size: 20px;&quot;&gt;==&lt;/b&gt;&lt;/font&gt;" style="ellipse;whiteSpace=wrap;html=1;aspect=fixed;fillColor=#d5e8d4;strokeColor=#82b366;" parent="1" vertex="1">
          <mxGeometry x="650" y="440" width="60" height="60" as="geometry" />
        </mxCell>
        <mxCell id="IZAZrPXhsD7FJTsowvt--104" value="" style="endArrow=classic;html=1;rounded=0;entryX=0.5;entryY=1;entryDx=0;entryDy=0;exitX=0.5;exitY=1;exitDx=0;exitDy=0;" parent="1" source="IZAZrPXhsD7FJTsowvt--102" target="IZAZrPXhsD7FJTsowvt--91" edge="1">
          <mxGeometry width="50" height="50" relative="1" as="geometry">
            <mxPoint x="660" y="500" as="sourcePoint" />
            <mxPoint x="570" y="460" as="targetPoint" />
          </mxGeometry>
        </mxCell>
        <mxCell id="IZAZrPXhsD7FJTsowvt--106" value="" style="shape=flexArrow;endArrow=classic;html=1;rounded=0;" parent="1" edge="1">
          <mxGeometry width="50" height="50" relative="1" as="geometry">
            <mxPoint x="679.66" y="400" as="sourcePoint" />
            <mxPoint x="679.66" y="440" as="targetPoint" />
          </mxGeometry>
        </mxCell>
        <mxCell id="IZAZrPXhsD7FJTsowvt--107" value="4b1001" style="text;html=1;align=center;verticalAlign=middle;whiteSpace=wrap;rounded=0;fontStyle=1;fontSize=14;" parent="1" vertex="1">
          <mxGeometry x="655" y="380" width="50" height="20" as="geometry" />
        </mxCell>
        <mxCell id="IZAZrPXhsD7FJTsowvt--108" value="4b0001" style="text;html=1;align=center;verticalAlign=middle;whiteSpace=wrap;rounded=0;fontStyle=1;fontSize=14;" parent="1" vertex="1">
          <mxGeometry x="655" y="230" width="50" height="20" as="geometry" />
        </mxCell>
        <mxCell id="IZAZrPXhsD7FJTsowvt--109" value="Q + 1" style="text;html=1;align=center;verticalAlign=middle;whiteSpace=wrap;rounded=0;fontSize=14;fontStyle=1" parent="1" vertex="1">
          <mxGeometry x="720" y="295" width="60" height="20" as="geometry" />
        </mxCell>
        <mxCell id="IZAZrPXhsD7FJTsowvt--110" value="Q = 9" style="text;html=1;align=center;verticalAlign=middle;whiteSpace=wrap;rounded=0;fontSize=14;fontStyle=1" parent="1" vertex="1">
          <mxGeometry x="680" y="500" width="50" height="20" as="geometry" />
        </mxCell>
        <mxCell id="IZAZrPXhsD7FJTsowvt--113" value="" style="endArrow=classic;html=1;rounded=0;entryX=0;entryY=0.5;entryDx=0;entryDy=0;" parent="1" target="IZAZrPXhsD7FJTsowvt--120" edge="1">
          <mxGeometry width="50" height="50" relative="1" as="geometry">
            <mxPoint x="680" y="530" as="sourcePoint" />
            <mxPoint x="880" y="530" as="targetPoint" />
          </mxGeometry>
        </mxCell>
        <mxCell id="IZAZrPXhsD7FJTsowvt--114" value="" style="shape=flexArrow;endArrow=classic;html=1;rounded=0;" parent="1" edge="1">
          <mxGeometry width="50" height="50" relative="1" as="geometry">
            <mxPoint x="679.31" y="250" as="sourcePoint" />
            <mxPoint x="679.31" y="290" as="targetPoint" />
          </mxGeometry>
        </mxCell>
        <mxCell id="IZAZrPXhsD7FJTsowvt--115" value="" style="shape=flexArrow;endArrow=classic;html=1;rounded=0;" parent="1" edge="1">
          <mxGeometry width="50" height="50" relative="1" as="geometry">
            <mxPoint x="530" y="180" as="sourcePoint" />
            <mxPoint x="1000" y="180" as="targetPoint" />
          </mxGeometry>
        </mxCell>
        <mxCell id="IZAZrPXhsD7FJTsowvt--116" value="" style="shape=flexArrow;endArrow=classic;html=1;rounded=0;entryX=1;entryY=0.5;entryDx=0;entryDy=0;" parent="1" target="IZAZrPXhsD7FJTsowvt--85" edge="1">
          <mxGeometry width="50" height="50" relative="1" as="geometry">
            <mxPoint x="530" y="180" as="sourcePoint" />
            <mxPoint x="580" y="380" as="targetPoint" />
            <Array as="points">
              <mxPoint x="590" y="180" />
              <mxPoint x="590" y="560" />
            </Array>
          </mxGeometry>
        </mxCell>
        <mxCell id="IZAZrPXhsD7FJTsowvt--117" value="&amp;amp;" style="rounded=0;whiteSpace=wrap;html=1;fontStyle=1;fontSize=16;fillColor=#f8cecc;strokeColor=#b85450;container=0;" parent="1" vertex="1">
          <mxGeometry x="160" y="660" width="40" height="40" as="geometry" />
        </mxCell>
        <mxCell id="IZAZrPXhsD7FJTsowvt--120" value="&amp;amp;" style="rounded=0;whiteSpace=wrap;html=1;fontStyle=1;fontSize=16;fillColor=#f8cecc;strokeColor=#b85450;container=0;" parent="1" vertex="1">
          <mxGeometry x="860" y="510" width="40" height="40" as="geometry" />
        </mxCell>
        <mxCell id="IZAZrPXhsD7FJTsowvt--121" value="" style="endArrow=classic;html=1;rounded=0;entryX=0;entryY=0.25;entryDx=0;entryDy=0;" parent="1" source="IZAZrPXhsD7FJTsowvt--126" target="IZAZrPXhsD7FJTsowvt--120" edge="1">
          <mxGeometry width="50" height="50" relative="1" as="geometry">
            <mxPoint x="320" y="100" as="sourcePoint" />
            <mxPoint x="860" y="470" as="targetPoint" />
            <Array as="points">
              <mxPoint x="830" y="100" />
              <mxPoint x="830" y="520" />
            </Array>
          </mxGeometry>
        </mxCell>
        <mxCell id="IZAZrPXhsD7FJTsowvt--123" value="" style="endArrow=classic;html=1;rounded=0;entryX=0.5;entryY=0;entryDx=0;entryDy=0;exitX=1;exitY=0.5;exitDx=0;exitDy=0;" parent="1" source="IZAZrPXhsD7FJTsowvt--117" target="IZAZrPXhsD7FJTsowvt--79" edge="1">
          <mxGeometry width="50" height="50" relative="1" as="geometry">
            <mxPoint x="530" y="430" as="sourcePoint" />
            <mxPoint x="580" y="380" as="targetPoint" />
            <Array as="points">
              <mxPoint x="250" y="680" />
            </Array>
          </mxGeometry>
        </mxCell>
        <mxCell id="IZAZrPXhsD7FJTsowvt--124" value="" style="endArrow=classic;html=1;rounded=0;entryX=0;entryY=0.25;entryDx=0;entryDy=0;" parent="1" target="IZAZrPXhsD7FJTsowvt--117" edge="1">
          <mxGeometry width="50" height="50" relative="1" as="geometry">
            <mxPoint x="20" y="670" as="sourcePoint" />
            <mxPoint x="580" y="380" as="targetPoint" />
          </mxGeometry>
        </mxCell>
        <mxCell id="IZAZrPXhsD7FJTsowvt--125" value="" style="endArrow=classic;html=1;rounded=0;entryX=0;entryY=0.75;entryDx=0;entryDy=0;" parent="1" target="IZAZrPXhsD7FJTsowvt--120" edge="1">
          <mxGeometry width="50" height="50" relative="1" as="geometry">
            <mxPoint x="20" y="720" as="sourcePoint" />
            <mxPoint x="580" y="380" as="targetPoint" />
            <Array as="points">
              <mxPoint x="830" y="720" />
              <mxPoint x="830" y="540" />
            </Array>
          </mxGeometry>
        </mxCell>
        <mxCell id="IZAZrPXhsD7FJTsowvt--126" value="!" style="rounded=0;whiteSpace=wrap;html=1;fontStyle=1;fontSize=16;fillColor=#f8cecc;strokeColor=#b85450;container=0;" parent="1" vertex="1">
          <mxGeometry x="660" y="80" width="40" height="40" as="geometry" />
        </mxCell>
        <mxCell id="IZAZrPXhsD7FJTsowvt--129" value="" style="endArrow=classic;html=1;rounded=0;entryX=0;entryY=0.5;entryDx=0;entryDy=0;" parent="1" target="IZAZrPXhsD7FJTsowvt--126" edge="1">
          <mxGeometry width="50" height="50" relative="1" as="geometry">
            <mxPoint x="250" y="100" as="sourcePoint" />
            <mxPoint x="580" y="380" as="targetPoint" />
          </mxGeometry>
        </mxCell>
        <mxCell id="IZAZrPXhsD7FJTsowvt--130" value="" style="endArrow=classic;html=1;rounded=0;exitX=1;exitY=0.5;exitDx=0;exitDy=0;" parent="1" source="IZAZrPXhsD7FJTsowvt--120" edge="1">
          <mxGeometry width="50" height="50" relative="1" as="geometry">
            <mxPoint x="530" y="430" as="sourcePoint" />
            <mxPoint x="1000" y="530" as="targetPoint" />
          </mxGeometry>
        </mxCell>
        <mxCell id="IZAZrPXhsD7FJTsowvt--131" value="" style="endArrow=classic;html=1;rounded=0;entryX=0;entryY=0.75;entryDx=0;entryDy=0;" parent="1" target="IZAZrPXhsD7FJTsowvt--117" edge="1">
          <mxGeometry width="50" height="50" relative="1" as="geometry">
            <mxPoint x="120" y="720" as="sourcePoint" />
            <mxPoint x="580" y="380" as="targetPoint" />
            <Array as="points">
              <mxPoint x="120" y="690" />
            </Array>
          </mxGeometry>
        </mxCell>
      </root>
    </mxGraphModel>
  </diagram>
</mxfile>
